<?xml version="1.0" encoding="UTF-8" standalone="no"?>
<!DOCTYPE svg PUBLIC "-//W3C//DTD SVG 1.1//EN"
 "http://www.w3.org/Graphics/SVG/1.1/DTD/svg11.dtd">
<!-- Generated by graphviz version 2.40.1 (20161225.0304)
 -->
<!-- Title: G Pages: 1 -->
<svg width="550pt" height="498pt"
 viewBox="0.00 0.00 550.00 498.00" xmlns="http://www.w3.org/2000/svg" xmlns:xlink="http://www.w3.org/1999/xlink">
<g id="graph0" class="graph" transform="scale(1 1) rotate(0) translate(4 494)">
<title>G</title>
<polygon fill="#ffffff" stroke="transparent" points="-4,4 -4,-494 546,-494 546,4 -4,4"/>
<!-- A0 -->
<g id="node1" class="node">
<title>A0</title>
<polygon fill="none" stroke="#000000" points="236.5,-458 236.5,-490 293.5,-490 293.5,-458 236.5,-458"/>
<text text-anchor="start" x="252.217" y="-471" font-family="Helvetica,sans-Serif" font-size="10.00" fill="#000000">Book </text>
<polygon fill="none" stroke="#000000" points="236.5,-426 236.5,-458 293.5,-458 293.5,-426 236.5,-426"/>
<text text-anchor="start" x="246.1035" y="-439" font-family="Helvetica,sans-Serif" font-size="10.00" fill="#000000"> book_id</text>
</g>
<!-- A1 -->
<g id="node2" class="node">
<title>A1</title>
<polygon fill="none" stroke="#000000" points="226.1816,-376 146.8184,-376 146.8184,-340 226.1816,-340 226.1816,-376"/>
<text text-anchor="middle" x="186.5" y="-355" font-family="Helvetica,sans-Serif" font-size="10.00" fill="#000000">Scoreboard</text>
</g>
<!-- A0&#45;&gt;A1 -->
<g id="edge1" class="edge">
<title>A0&#45;&gt;A1</title>
<path fill="none" stroke="#000000" d="M233.2352,-417.917C221.9423,-403.4389 209.7479,-387.805 200.6478,-376.1382"/>
<polygon fill="none" stroke="#000000" points="230.4808,-420.0765 239.391,-425.8089 236.0004,-415.7713 230.4808,-420.0765"/>
</g>
<!-- A2 -->
<g id="node3" class="node">
<title>A2</title>
<polygon fill="none" stroke="#000000" points="406.2932,-376 280.7068,-376 280.7068,-340 406.2932,-340 406.2932,-376"/>
<text text-anchor="middle" x="343.5" y="-355" font-family="Helvetica,sans-Serif" font-size="10.00" fill="#000000">Comment Component</text>
</g>
<!-- A0&#45;&gt;A2 -->
<g id="edge2" class="edge">
<title>A0&#45;&gt;A2</title>
<path fill="none" stroke="#000000" d="M296.1656,-417.917C307.6033,-403.4389 319.954,-387.805 329.1708,-376.1382"/>
<polygon fill="none" stroke="#000000" points="293.3836,-415.7924 289.9309,-425.8089 298.8764,-420.1317 293.3836,-415.7924"/>
</g>
<!-- A3 -->
<g id="node4" class="node">
<title>A3</title>
<polygon fill="none" stroke="#000000" points=".5,-246 .5,-290 83.5,-290 83.5,-246 .5,-246"/>
<text text-anchor="start" x="10.327" y="-271" font-family="Helvetica,sans-Serif" font-size="10.00" fill="#000000">Individual Star</text>
<text text-anchor="start" x="25.6085" y="-259" font-family="Helvetica,sans-Serif" font-size="10.00" fill="#000000">ratings </text>
<polygon fill="none" stroke="#000000" points=".5,-214 .5,-246 83.5,-246 83.5,-214 .5,-214"/>
<text text-anchor="start" x="26.7185" y="-227" font-family="Helvetica,sans-Serif" font-size="10.00" fill="#000000"> 5 star </text>
<polygon fill="none" stroke="#000000" points=".5,-182 .5,-214 83.5,-214 83.5,-182 .5,-182"/>
<text text-anchor="start" x="26.7185" y="-195" font-family="Helvetica,sans-Serif" font-size="10.00" fill="#000000"> 4 star </text>
<polygon fill="none" stroke="#000000" points=".5,-150 .5,-182 83.5,-182 83.5,-150 .5,-150"/>
<text text-anchor="start" x="26.7185" y="-163" font-family="Helvetica,sans-Serif" font-size="10.00" fill="#000000"> 3 star </text>
<polygon fill="none" stroke="#000000" points=".5,-118 .5,-150 83.5,-150 83.5,-118 .5,-118"/>
<text text-anchor="start" x="26.7185" y="-131" font-family="Helvetica,sans-Serif" font-size="10.00" fill="#000000"> 2 star </text>
<polygon fill="none" stroke="#000000" points=".5,-86 .5,-118 83.5,-118 83.5,-86 .5,-86"/>
<text text-anchor="start" x="28.108" y="-99" font-family="Helvetica,sans-Serif" font-size="10.00" fill="#000000"> 1 star</text>
</g>
<!-- A1&#45;&gt;A3 -->
<g id="edge3" class="edge">
<title>A1&#45;&gt;A3</title>
<path fill="none" stroke="#000000" d="M145.2746,-334.4251C127.4305,-322.7483 107.2907,-307.4151 92.5,-290 89.2318,-286.1519 86.1087,-282.0584 83.1342,-277.8066"/>
<polygon fill="none" stroke="#000000" points="143.5,-337.4443 153.8165,-339.8568 147.2561,-331.5374 143.5,-337.4443"/>
</g>
<!-- A4 -->
<g id="node5" class="node">
<title>A4</title>
<polygon fill="none" stroke="#000000" points="101.5,-188 101.5,-220 271.5,-220 271.5,-188 101.5,-188"/>
<text text-anchor="start" x="150.657" y="-201" font-family="Helvetica,sans-Serif" font-size="10.00" fill="#000000">Average Rating </text>
<polygon fill="none" stroke="#000000" points="101.5,-156 101.5,-188 271.5,-188 271.5,-156 101.5,-156"/>
<text text-anchor="start" x="111.479" y="-169" font-family="Helvetica,sans-Serif" font-size="10.00" fill="#000000"> getAverageRating(Book.book_id)</text>
</g>
<!-- A1&#45;&gt;A4 -->
<g id="edge4" class="edge">
<title>A1&#45;&gt;A4</title>
<path fill="none" stroke="#000000" d="M186.5,-329.5367C186.5,-299.3553 186.5,-251.774 186.5,-220.2318"/>
<polygon fill="none" stroke="#000000" points="183.0001,-329.807 186.5,-339.807 190.0001,-329.8071 183.0001,-329.807"/>
</g>
<!-- A5 -->
<g id="node6" class="node">
<title>A5</title>
<polygon fill="none" stroke="#000000" points="290.5,-188 290.5,-220 397.5,-220 397.5,-188 290.5,-188"/>
<text text-anchor="start" x="332.612" y="-201" font-family="Helvetica,sans-Serif" font-size="10.00" fill="#000000">New </text>
<polygon fill="none" stroke="#000000" points="290.5,-156 290.5,-188 397.5,-188 397.5,-156 290.5,-156"/>
<text text-anchor="start" x="300.109" y="-169" font-family="Helvetica,sans-Serif" font-size="10.00" fill="#000000"> InsertRatingToDb()</text>
</g>
<!-- A2&#45;&gt;A5 -->
<g id="edge5" class="edge">
<title>A2&#45;&gt;A5</title>
<path fill="none" stroke="#000000" d="M343.5,-329.5367C343.5,-299.3553 343.5,-251.774 343.5,-220.2318"/>
<polygon fill="none" stroke="#000000" points="340.0001,-329.807 343.5,-339.807 347.0001,-329.8071 340.0001,-329.807"/>
</g>
<!-- A6 -->
<g id="node7" class="node">
<title>A6</title>
<polygon fill="none" stroke="#000000" points="415.5,-188 415.5,-220 542.5,-220 542.5,-188 415.5,-188"/>
<text text-anchor="start" x="460.1085" y="-201" font-family="Helvetica,sans-Serif" font-size="10.00" fill="#000000">Existing </text>
<polygon fill="none" stroke="#000000" points="415.5,-156 415.5,-188 542.5,-188 542.5,-156 415.5,-156"/>
<text text-anchor="start" x="425.39" y="-169" font-family="Helvetica,sans-Serif" font-size="10.00" fill="#000000"> SelectRatingsFromDb()</text>
</g>
<!-- A2&#45;&gt;A6 -->
<g id="edge6" class="edge">
<title>A2&#45;&gt;A6</title>
<path fill="none" stroke="#000000" d="M368.6381,-332.4923C380.5251,-320.0289 394.67,-304.6006 406.5,-290 424.7851,-267.4325 443.6551,-240.5437 457.4877,-220.0407"/>
<polygon fill="none" stroke="#000000" points="365.983,-330.2037 361.5695,-339.8355 371.0262,-335.0583 365.983,-330.2037"/>
</g>
<!-- A7 -->
<g id="node8" class="node">
<title>A7</title>
<polygon fill="none" stroke="#000000" points="229.509,-36 151.491,-36 151.491,0 229.509,0 229.509,-36"/>
<text text-anchor="middle" x="190.5" y="-15" font-family="Helvetica,sans-Serif" font-size="10.00" fill="#000000">Star Rating</text>
</g>
<!-- A5&#45;&gt;A7 -->
<g id="edge7" class="edge">
<title>A5&#45;&gt;A7</title>
<path fill="none" stroke="#000000" d="M322.5631,-146.5717C311.563,-127.0193 296.9507,-104.0701 280.5,-86 262.7023,-66.4503 238.6474,-48.6092 219.884,-36.1113"/>
<polygon fill="none" stroke="#000000" points="319.6265,-148.4953 327.5106,-155.5729 325.7609,-145.1235 319.6265,-148.4953"/>
</g>
<!-- A8 -->
<g id="node9" class="node">
<title>A8</title>
<polygon fill="none" stroke="#000000" points="339.3406,-36 247.6594,-36 247.6594,0 339.3406,0 339.3406,-36"/>
<text text-anchor="middle" x="293.5" y="-15" font-family="Helvetica,sans-Serif" font-size="10.00" fill="#000000">Comment Box</text>
</g>
<!-- A5&#45;&gt;A8 -->
<g id="edge8" class="edge">
<title>A5&#45;&gt;A8</title>
<path fill="none" stroke="#000000" d="M331.034,-145.6155C320.6774,-110.4033 306.4496,-62.0285 298.8301,-36.1225"/>
<polygon fill="none" stroke="#000000" points="327.7982,-147.0181 333.9777,-155.6242 334.5137,-145.0429 327.7982,-147.0181"/>
</g>
<!-- A9 -->
<g id="node10" class="node">
<title>A9</title>
<polygon fill="none" stroke="#000000" points="429.9564,-36 357.0436,-36 357.0436,0 429.9564,0 429.9564,-36"/>
<text text-anchor="middle" x="393.5" y="-15" font-family="Helvetica,sans-Serif" font-size="10.00" fill="#000000">Checkbox</text>
</g>
<!-- A5&#45;&gt;A9 -->
<g id="edge9" class="edge">
<title>A5&#45;&gt;A9</title>
<path fill="none" stroke="#000000" d="M355.966,-145.6155C366.3226,-110.4033 380.5504,-62.0285 388.1699,-36.1225"/>
<polygon fill="none" stroke="#000000" points="352.4863,-145.0429 353.0223,-155.6242 359.2018,-147.0181 352.4863,-145.0429"/>
</g>
<!-- A10 -->
<g id="node11" class="node">
<title>A10</title>
<polygon fill="none" stroke="#000000" points="537.1776,-36 447.8224,-36 447.8224,0 537.1776,0 537.1776,-36"/>
<text text-anchor="middle" x="492.5" y="-21" font-family="Helvetica,sans-Serif" font-size="10.00" fill="#000000">Create Rating</text>
<text text-anchor="middle" x="492.5" y="-9" font-family="Helvetica,sans-Serif" font-size="10.00" fill="#000000">Button</text>
</g>
<!-- A5&#45;&gt;A10 -->
<g id="edge10" class="edge">
<title>A5&#45;&gt;A10</title>
<path fill="none" stroke="#000000" d="M364.6125,-146.7299C375.6532,-127.214 390.2491,-104.2499 406.5,-86 423.7149,-66.6676 446.9105,-48.6844 464.8737,-36.0731"/>
<polygon fill="none" stroke="#000000" points="361.4224,-145.266 359.6419,-155.7102 367.5468,-148.6559 361.4224,-145.266"/>
</g>
</g>
</svg>
