<?xml version="1.0" encoding="UTF-8" standalone="no"?>
<!DOCTYPE svg PUBLIC "-//W3C//DTD SVG 1.1//EN"
 "http://www.w3.org/Graphics/SVG/1.1/DTD/svg11.dtd">
<!-- Generated by graphviz version 2.40.1 (20161225.0304)
 -->
<!-- Title: G Pages: 1 -->
<svg width="641pt" height="520pt"
 viewBox="0.00 0.00 640.58 519.63" xmlns="http://www.w3.org/2000/svg" xmlns:xlink="http://www.w3.org/1999/xlink">
<g id="graph0" class="graph" transform="scale(1 1) rotate(0) translate(4 515.6274)">
<title>G</title>
<polygon fill="#ffffff" stroke="transparent" points="-4,4 -4,-515.6274 636.5757,-515.6274 636.5757,4 -4,4"/>
<!-- A0 -->
<g id="node1" class="node">
<title>A0</title>
<polygon fill="#ffff00" stroke="#000000" points="127.021,-36 -.007,-36 -.007,0 133.021,0 133.021,-30 127.021,-36"/>
<polyline fill="none" stroke="#000000" points="127.021,-36 127.021,-30 "/>
<polyline fill="none" stroke="#000000" points="133.021,-30 127.021,-30 "/>
<text text-anchor="middle" x="66.507" y="-21" font-family="Helvetica,sans-Serif" font-size="10.00" fill="#000000">Book Review Use Case</text>
<text text-anchor="middle" x="66.507" y="-9" font-family="Helvetica,sans-Serif" font-size="10.00" fill="#000000">Diagram</text>
</g>
<!-- A1 -->
<g id="node2" class="node">
<title>A1</title>
<g transform="translate(66.507,-378)" style="fill:none;stroke:black;stroke-width:1px"><circle cx="0" cy="-20" r="7.5" />
                <line x1="0" y1="-12.5" x2="0" y2="5" />
                <line x1="-15" y1="-5" x2="15" y2="-5" />
                <line x1="0" y1="5" x2="-15" y2="17" />
                <line x1="0" y1="5" x2="15" y2="17" /></g>
<text text-anchor="middle" x="66.507" y="-353" font-family="Helvetica,sans-Serif" font-size="10.00" fill="#000000">User</text>
</g>
<!-- A2 -->
<g id="node3" class="node">
<title>A2</title>
<ellipse fill="none" stroke="#000000" cx="547.9464" cy="-430" rx="65.9143" ry="18"/>
<text text-anchor="middle" x="547.9464" y="-427" font-family="Helvetica,sans-Serif" font-size="10.00" fill="#000000">Choose star rating</text>
</g>
<!-- A1&#45;&gt;A2 -->
<g id="edge1" class="edge">
<title>A1&#45;&gt;A2</title>
<path fill="none" stroke="#000000" d="M106.2196,-413.4477C139.2446,-438.2064 188.6684,-470.3149 238.044,-484 324.2472,-507.8924 352.2324,-488.3162 438.317,-464 460.4662,-457.7435 484.945,-450.2116 505.1426,-443.8287"/>
</g>
<!-- A3 -->
<g id="node4" class="node">
<title>A3</title>
<ellipse fill="none" stroke="#000000" cx="547.9464" cy="-354" rx="44.7908" ry="18"/>
<text text-anchor="middle" x="547.9464" y="-351" font-family="Helvetica,sans-Serif" font-size="10.00" fill="#000000">Writes title</text>
</g>
<!-- A1&#45;&gt;A3 -->
<g id="edge2" class="edge">
<title>A1&#45;&gt;A3</title>
<path fill="none" stroke="#000000" d="M106.3148,-378.7675C195.303,-373.7769 409.8391,-361.7453 503.2418,-356.5071"/>
</g>
<!-- A4 -->
<g id="node5" class="node">
<title>A4</title>
<ellipse fill="none" stroke="#000000" cx="547.9464" cy="-294" rx="74.9424" ry="18"/>
<text text-anchor="middle" x="547.9464" y="-291" font-family="Helvetica,sans-Serif" font-size="10.00" fill="#000000">Writes comment body</text>
</g>
<!-- A1&#45;&gt;A4 -->
<g id="edge3" class="edge">
<title>A1&#45;&gt;A4</title>
<path fill="none" stroke="#000000" d="M106.3725,-369.9687C166.3337,-353.8092 283.5242,-323.9009 384.946,-308 414.1285,-303.4248 446.5016,-300.2564 474.6568,-298.1068"/>
</g>
<!-- A5 -->
<g id="node6" class="node">
<title>A5</title>
<g transform="translate(298.995,-436)" style="fill:none;stroke:black;stroke-width:1px"><circle cx="0" cy="-20" r="7.5" />
                <line x1="0" y1="-12.5" x2="0" y2="5" />
                <line x1="-15" y1="-5" x2="15" y2="-5" />
                <line x1="0" y1="5" x2="-15" y2="17" />
                <line x1="0" y1="5" x2="15" y2="17" /></g>
<text text-anchor="middle" x="298.995" y="-411" font-family="Helvetica,sans-Serif" font-size="10.00" fill="#000000">Anonymous</text>
</g>
<!-- A1&#45;&gt;A5 -->
<g id="edge4" class="edge">
<title>A1&#45;&gt;A5</title>
<path fill="none" stroke="#000000" d="M106.2089,-390.9047C140.9542,-399.5727 192.1232,-412.3381 233.0147,-422.5395"/>
<polygon fill="none" stroke="#000000" points="232.355,-425.9822 242.9049,-425.0069 234.0495,-419.1903 232.355,-425.9822"/>
</g>
<!-- A5&#45;&gt;A2 -->
<g id="edge6" class="edge">
<title>A5&#45;&gt;A2</title>
<path fill="none" stroke="#000000" d="M354.8399,-447.1941C364.8431,-448.3628 375.1874,-449.3781 384.946,-450 408.6184,-451.5086 414.693,-452.1373 438.317,-450 457.489,-448.2655 478.319,-444.858 496.6219,-441.34"/>
</g>
<!-- A5&#45;&gt;A3 -->
<g id="edge7" class="edge">
<title>A5&#45;&gt;A3</title>
<path fill="none" stroke="#000000" d="M354.89,-441.1364C381.168,-440.228 412.3536,-436.3124 438.317,-425 451.8857,-419.088 451.299,-411.6388 463.317,-403 481.3762,-390.0187 503.1137,-377.492 520.036,-368.3539"/>
</g>
<!-- A5&#45;&gt;A4 -->
<g id="edge8" class="edge">
<title>A5&#45;&gt;A4</title>
<path fill="none" stroke="#000000" d="M345.7311,-402.9328C377.6774,-379.355 421.6266,-348.9718 463.317,-327 476.2916,-320.1621 491.0081,-313.9372 504.4887,-308.7824"/>
</g>
<!-- A6 -->
<g id="node7" class="node">
<title>A6</title>
<ellipse fill="none" stroke="#000000" cx="547.9464" cy="-489" rx="84.7589" ry="22.7556"/>
<text text-anchor="middle" x="547.9464" y="-492" font-family="Helvetica,sans-Serif" font-size="10.00" fill="#000000">Check box to remain</text>
<text text-anchor="middle" x="547.9464" y="-480" font-family="Helvetica,sans-Serif" font-size="10.00" fill="#000000">anonymous</text>
</g>
<!-- A5&#45;&gt;A6 -->
<g id="edge5" class="edge">
<title>A5&#45;&gt;A6</title>
<path fill="none" stroke="#000000" d="M355.1283,-456.47C365.0071,-459.2164 375.2347,-461.8526 384.946,-464 412.9003,-470.1813 443.8872,-475.3482 471.272,-479.3499"/>
</g>
<!-- A7 -->
<g id="node8" class="node">
<title>A7</title>
<g transform="translate(66.507,-87)" style="fill:none;stroke:black;stroke-width:1px"><circle cx="0" cy="-20" r="7.5" />
                <line x1="0" y1="-12.5" x2="0" y2="5" />
                <line x1="-15" y1="-5" x2="15" y2="-5" />
                <line x1="0" y1="5" x2="-15" y2="17" />
                <line x1="0" y1="5" x2="15" y2="17" /></g>
<text text-anchor="middle" x="66.507" y="-62" font-family="Helvetica,sans-Serif" font-size="10.00" fill="#000000">Book Review</text>
</g>
<!-- A8 -->
<g id="node9" class="node">
<title>A8</title>
<ellipse fill="none" stroke="#000000" cx="298.995" cy="-196" rx="55.0257" ry="18"/>
<text text-anchor="middle" x="298.995" y="-193" font-family="Helvetica,sans-Serif" font-size="10.00" fill="#000000">Add Comment</text>
</g>
<!-- A7&#45;&gt;A8 -->
<g id="edge9" class="edge">
<title>A7&#45;&gt;A8</title>
<path fill="none" stroke="#000000" d="M125.309,-120.2477C136.1276,-125.6161 147.367,-131.0643 158.014,-136 193.8519,-152.6135 235.551,-170.1422 264.2523,-181.934"/>
</g>
<!-- A9 -->
<g id="node10" class="node">
<title>A9</title>
<ellipse fill="none" stroke="#000000" cx="298.995" cy="-136" rx="44.4822" ry="18"/>
<text text-anchor="middle" x="298.995" y="-133" font-family="Helvetica,sans-Serif" font-size="10.00" fill="#000000">Add rating</text>
</g>
<!-- A7&#45;&gt;A9 -->
<g id="edge10" class="edge">
<title>A7&#45;&gt;A9</title>
<path fill="none" stroke="#000000" d="M125.1849,-92.098C152.203,-93.9562 184.525,-97.4479 213.044,-104 232.1316,-108.3853 252.719,-115.9438 268.9587,-122.6139"/>
</g>
<!-- A10 -->
<g id="node11" class="node">
<title>A10</title>
<ellipse fill="none" stroke="#000000" cx="298.995" cy="-69" rx="40.6218" ry="18"/>
<text text-anchor="middle" x="298.995" y="-66" font-family="Helvetica,sans-Serif" font-size="10.00" fill="#000000">Add Title</text>
</g>
<!-- A7&#45;&gt;A10 -->
<g id="edge11" class="edge">
<title>A7&#45;&gt;A10</title>
<path fill="none" stroke="#000000" d="M125.0403,-82.5328C135.988,-81.2586 147.3419,-80.0193 158.014,-79 191.8443,-75.7688 230.334,-73.1069 258.5394,-71.344"/>
</g>
<!-- A11 -->
<g id="node12" class="node">
<title>A11</title>
<ellipse fill="none" stroke="#000000" cx="66.507" cy="-200" rx="56.0209" ry="18"/>
<text text-anchor="middle" x="66.507" y="-197" font-family="Helvetica,sans-Serif" font-size="10.00" fill="#000000">Create Review</text>
</g>
<!-- A11&#45;&gt;A8 -->
<g id="edge12" class="edge">
<title>A11&#45;&gt;A8</title>
<path fill="none" stroke="#000000" stroke-dasharray="5,2" d="M122.7859,-199.0317C156.177,-198.4572 198.6586,-197.7263 233.5434,-197.1261"/>
<polygon fill="#000000" stroke="#000000" points="243.636,-196.9525 233.7149,-201.6239 238.6367,-197.0385 233.6375,-197.1246 233.6375,-197.1246 233.6375,-197.1246 238.6367,-197.0385 233.56,-192.6253 243.636,-196.9525 243.636,-196.9525"/>
<text text-anchor="middle" x="185.529" y="-202" font-family="Helvetica,sans-Serif" font-size="10.00" fill="#000000">&lt;&lt;include&gt;&gt;</text>
</g>
<!-- A11&#45;&gt;A9 -->
<g id="edge13" class="edge">
<title>A11&#45;&gt;A9</title>
<path fill="none" stroke="#000000" stroke-dasharray="5,2" d="M109.4198,-188.1868C149.9893,-177.0187 210.7002,-160.3061 252.4278,-148.8192"/>
<polygon fill="#000000" stroke="#000000" points="262.0773,-146.1628 253.6303,-153.1556 257.2566,-147.4899 252.436,-148.817 252.436,-148.817 252.436,-148.817 257.2566,-147.4899 251.2416,-144.4784 262.0773,-146.1628 262.0773,-146.1628"/>
<text text-anchor="middle" x="185.529" y="-177" font-family="Helvetica,sans-Serif" font-size="10.00" fill="#000000">&lt;&lt;include&gt;&gt;</text>
</g>
<!-- A11&#45;&gt;A10 -->
<g id="edge14" class="edge">
<title>A11&#45;&gt;A10</title>
<path fill="none" stroke="#000000" stroke-dasharray="5,2" d="M92.7432,-183.786C110.9338,-172.6541 135.7883,-157.6609 158.014,-145 193.5047,-124.7827 234.6844,-102.7437 263.3388,-87.6303"/>
<polygon fill="#000000" stroke="#000000" points="272.5499,-82.783 265.7961,-91.4223 268.1252,-85.1115 263.7005,-87.44 263.7005,-87.44 263.7005,-87.44 268.1252,-85.1115 261.6048,-83.4578 272.5499,-82.783 272.5499,-82.783"/>
<text text-anchor="middle" x="185.529" y="-148" font-family="Helvetica,sans-Serif" font-size="10.00" fill="#000000">&lt;&lt;include&gt;&gt;</text>
</g>
<!-- A12 -->
<g id="node13" class="node">
<title>A12</title>
<ellipse fill="none" stroke="#000000" cx="298.995" cy="-253" rx="60.902" ry="18"/>
<text text-anchor="middle" x="298.995" y="-250" font-family="Helvetica,sans-Serif" font-size="10.00" fill="#000000">Book Purchased</text>
</g>
<!-- A11&#45;&gt;A12 -->
<g id="edge18" class="edge">
<title>A11&#45;&gt;A12</title>
<path fill="none" stroke="#000000" stroke-dasharray="5,2" d="M122.5787,-212.7826C161.5871,-221.6753 213.0771,-233.4134 250.353,-241.9111"/>
<polygon fill="#000000" stroke="#000000" points="112.4391,-210.4711 123.1892,-208.3064 117.3141,-211.5825 122.189,-212.6938 122.189,-212.6938 122.189,-212.6938 117.3141,-211.5825 121.1888,-217.0813 112.4391,-210.4711 112.4391,-210.4711"/>
<text text-anchor="middle" x="185.529" y="-236" font-family="Helvetica,sans-Serif" font-size="10.00" fill="#000000">&lt;&lt;extend&gt;&gt;</text>
</g>
<!-- A12&#45;&gt;A2 -->
<g id="edge17" class="edge">
<title>A12&#45;&gt;A2</title>
<path fill="none" stroke="#000000" stroke-dasharray="5,2" d="M325.6673,-277.2662C342.3312,-292.0959 364.4467,-311.1863 384.946,-327 418.4379,-352.8365 427.5706,-358.3852 463.317,-381 481.3948,-392.4369 502.1786,-404.4858 518.6254,-413.7736"/>
<polygon fill="#000000" stroke="#000000" points="317.9558,-270.3615 328.4076,-273.6796 321.6808,-273.6968 325.4058,-277.0321 325.4058,-277.0321 325.4058,-277.0321 321.6808,-273.6968 322.4041,-280.3847 317.9558,-270.3615 317.9558,-270.3615"/>
<text text-anchor="middle" x="411.6315" y="-367" font-family="Helvetica,sans-Serif" font-size="10.00" fill="#000000">&lt;&lt;extend&gt;&gt;</text>
</g>
<!-- A12&#45;&gt;A3 -->
<g id="edge15" class="edge">
<title>A12&#45;&gt;A3</title>
<path fill="none" stroke="#000000" stroke-dasharray="5,2" d="M343.5401,-271.724C376.5381,-285.5235 422.6413,-304.6553 463.317,-321 480.4375,-327.8795 499.586,-335.3637 515.3326,-341.4628"/>
<polygon fill="#000000" stroke="#000000" points="334.1691,-267.8011 345.1311,-267.5117 338.7813,-269.7319 343.3934,-271.6627 343.3934,-271.6627 343.3934,-271.6627 338.7813,-269.7319 341.6558,-275.8136 334.1691,-267.8011 334.1691,-267.8011"/>
<text text-anchor="middle" x="411.6315" y="-314" font-family="Helvetica,sans-Serif" font-size="10.00" fill="#000000">&lt;&lt;extend&gt;&gt;</text>
</g>
<!-- A12&#45;&gt;A4 -->
<g id="edge16" class="edge">
<title>A12&#45;&gt;A4</title>
<path fill="none" stroke="#000000" stroke-dasharray="5,2" d="M368.0014,-258.6983C390.5033,-261.0175 415.5494,-264.0905 438.317,-268 457.7884,-271.3435 478.96,-276.0958 497.4595,-280.6249"/>
<polygon fill="#000000" stroke="#000000" points="357.859,-257.6854 368.2567,-254.2015 362.8343,-258.1823 367.8095,-258.6792 367.8095,-258.6792 367.8095,-258.6792 362.8343,-258.1823 367.3623,-263.1569 357.859,-257.6854 357.859,-257.6854"/>
<text text-anchor="middle" x="411.6315" y="-271" font-family="Helvetica,sans-Serif" font-size="10.00" fill="#000000">&lt;&lt;extend&gt;&gt;</text>
</g>
</g>
</svg>
